<mxfile host="app.diagrams.net" agent="Mozilla/5.0 (Macintosh; Intel Mac OS X 10_15_7) AppleWebKit/537.36 (KHTML, like Gecko) Chrome/135.0.0.0 Safari/537.36" version="26.2.14">
  <diagram name="Page-1" id="4xNdFWUYCOUEV-2DhdXp">
    <mxGraphModel dx="1426" dy="800" grid="1" gridSize="10" guides="1" tooltips="1" connect="1" arrows="1" fold="1" page="1" pageScale="1" pageWidth="1200" pageHeight="1600" math="0" shadow="0">
      <root>
        <mxCell id="0" />
        <mxCell id="1" parent="0" />
        <mxCell id="sQwk3OUNblVCWxSX63vB-65" value="" style="rounded=1;whiteSpace=wrap;html=1;fillColor=none;dashed=1;" vertex="1" parent="1">
          <mxGeometry x="880" y="378.31" width="110" height="201.69" as="geometry" />
        </mxCell>
        <mxCell id="sQwk3OUNblVCWxSX63vB-28" value="" style="rounded=1;whiteSpace=wrap;html=1;dashed=1;dashPattern=8 8;fillColor=none;" vertex="1" parent="1">
          <mxGeometry x="440" y="185" width="280" height="105" as="geometry" />
        </mxCell>
        <mxCell id="sQwk3OUNblVCWxSX63vB-4" value="" style="edgeStyle=orthogonalEdgeStyle;rounded=0;orthogonalLoop=1;jettySize=auto;html=1;" edge="1" parent="1" source="sQwk3OUNblVCWxSX63vB-1">
          <mxGeometry relative="1" as="geometry">
            <mxPoint x="506" y="199.9999999999999" as="targetPoint" />
          </mxGeometry>
        </mxCell>
        <mxCell id="sQwk3OUNblVCWxSX63vB-1" value="Tenant" style="shape=umlActor;verticalLabelPosition=bottom;verticalAlign=top;html=1;outlineConnect=0;" vertex="1" parent="1">
          <mxGeometry x="496" y="110" width="20" height="40" as="geometry" />
        </mxCell>
        <mxCell id="sQwk3OUNblVCWxSX63vB-11" value="" style="edgeStyle=orthogonalEdgeStyle;rounded=0;orthogonalLoop=1;jettySize=auto;html=1;" edge="1" parent="1" source="sQwk3OUNblVCWxSX63vB-10">
          <mxGeometry relative="1" as="geometry">
            <mxPoint x="670" y="170" as="sourcePoint" />
            <mxPoint x="665.9999999999998" y="199.9999999999999" as="targetPoint" />
          </mxGeometry>
        </mxCell>
        <mxCell id="sQwk3OUNblVCWxSX63vB-10" value="Patients" style="shape=umlActor;verticalLabelPosition=bottom;verticalAlign=top;html=1;outlineConnect=0;" vertex="1" parent="1">
          <mxGeometry x="656" y="110" width="20" height="40" as="geometry" />
        </mxCell>
        <mxCell id="sQwk3OUNblVCWxSX63vB-13" value="" style="edgeStyle=orthogonalEdgeStyle;rounded=0;orthogonalLoop=1;jettySize=auto;html=1;" edge="1" parent="1" source="sQwk3OUNblVCWxSX63vB-12">
          <mxGeometry relative="1" as="geometry">
            <mxPoint x="719.9999999999998" y="229.9999999999999" as="targetPoint" />
          </mxGeometry>
        </mxCell>
        <mxCell id="sQwk3OUNblVCWxSX63vB-12" value="" style="image;sketch=0;aspect=fixed;html=1;points=[];align=center;fontSize=12;image=img/lib/mscae/DNS.svg;" vertex="1" parent="1">
          <mxGeometry x="792" y="205" width="50" height="50" as="geometry" />
        </mxCell>
        <mxCell id="sQwk3OUNblVCWxSX63vB-18" value="Admin&lt;div&gt;Console&lt;/div&gt;" style="rounded=1;whiteSpace=wrap;html=1;" vertex="1" parent="1">
          <mxGeometry x="450.15" y="210" width="79.85" height="40" as="geometry" />
        </mxCell>
        <mxCell id="sQwk3OUNblVCWxSX63vB-14" value="" style="image;aspect=fixed;html=1;points=[];align=center;fontSize=12;image=img/lib/azure2/networking/CDN_Profiles.svg;" vertex="1" parent="1">
          <mxGeometry x="452.5" y="259" width="40.8" height="24" as="geometry" />
        </mxCell>
        <mxCell id="sQwk3OUNblVCWxSX63vB-32" value="" style="edgeStyle=orthogonalEdgeStyle;rounded=0;orthogonalLoop=1;jettySize=auto;html=1;" edge="1" parent="1" source="sQwk3OUNblVCWxSX63vB-16" target="sQwk3OUNblVCWxSX63vB-31">
          <mxGeometry relative="1" as="geometry" />
        </mxCell>
        <mxCell id="sQwk3OUNblVCWxSX63vB-16" value="API Gateway" style="sketch=0;points=[[0,0,0],[0.25,0,0],[0.5,0,0],[0.75,0,0],[1,0,0],[0,1,0],[0.25,1,0],[0.5,1,0],[0.75,1,0],[1,1,0],[0,0.25,0],[0,0.5,0],[0,0.75,0],[1,0.25,0],[1,0.5,0],[1,0.75,0]];outlineConnect=0;fontColor=#232F3E;fillColor=#8C4FFF;strokeColor=#ffffff;dashed=0;verticalLabelPosition=bottom;verticalAlign=top;align=center;html=1;fontSize=10;fontStyle=0;aspect=fixed;shape=mxgraph.aws4.resourceIcon;resIcon=mxgraph.aws4.api_gateway;" vertex="1" parent="1">
          <mxGeometry x="550" y="324" width="72.5" height="72.5" as="geometry" />
        </mxCell>
        <mxCell id="sQwk3OUNblVCWxSX63vB-19" value="Intake form&lt;div&gt;applicatoin&lt;/div&gt;" style="rounded=1;whiteSpace=wrap;html=1;" vertex="1" parent="1">
          <mxGeometry x="628.5" y="210" width="79" height="40" as="geometry" />
        </mxCell>
        <mxCell id="sQwk3OUNblVCWxSX63vB-24" value="" style="edgeStyle=orthogonalEdgeStyle;rounded=0;orthogonalLoop=1;jettySize=auto;html=1;" edge="1" parent="1" source="sQwk3OUNblVCWxSX63vB-17" target="sQwk3OUNblVCWxSX63vB-16">
          <mxGeometry relative="1" as="geometry" />
        </mxCell>
        <mxCell id="sQwk3OUNblVCWxSX63vB-17" value="Idp (Keykloak)" style="sketch=0;verticalLabelPosition=bottom;sketch=0;aspect=fixed;html=1;verticalAlign=top;strokeColor=none;fillColor=#000000;align=center;outlineConnect=0;pointerEvents=1;shape=mxgraph.citrix2.citrix_federated_authentication_service2;fontSize=10;" vertex="1" parent="1">
          <mxGeometry x="421.5" y="342.2" width="60" height="36.11" as="geometry" />
        </mxCell>
        <mxCell id="sQwk3OUNblVCWxSX63vB-20" value="" style="sketch=0;points=[[0,0,0],[0.25,0,0],[0.5,0,0],[0.75,0,0],[1,0,0],[0,1,0],[0.25,1,0],[0.5,1,0],[0.75,1,0],[1,1,0],[0,0.25,0],[0,0.5,0],[0,0.75,0],[1,0.25,0],[1,0.5,0],[1,0.75,0]];outlineConnect=0;fontColor=#232F3E;fillColor=#8C4FFF;strokeColor=#ffffff;dashed=0;verticalLabelPosition=bottom;verticalAlign=top;align=center;html=1;fontSize=12;fontStyle=0;aspect=fixed;shape=mxgraph.aws4.resourceIcon;resIcon=mxgraph.aws4.cloudfront;" vertex="1" parent="1">
          <mxGeometry x="503.5" y="259" width="24" height="24" as="geometry" />
        </mxCell>
        <mxCell id="sQwk3OUNblVCWxSX63vB-22" value="" style="image;aspect=fixed;html=1;points=[];align=center;fontSize=12;image=img/lib/azure2/networking/CDN_Profiles.svg;" vertex="1" parent="1">
          <mxGeometry x="631.5" y="259" width="40.8" height="24" as="geometry" />
        </mxCell>
        <mxCell id="sQwk3OUNblVCWxSX63vB-23" value="" style="sketch=0;points=[[0,0,0],[0.25,0,0],[0.5,0,0],[0.75,0,0],[1,0,0],[0,1,0],[0.25,1,0],[0.5,1,0],[0.75,1,0],[1,1,0],[0,0.25,0],[0,0.5,0],[0,0.75,0],[1,0.25,0],[1,0.5,0],[1,0.75,0]];outlineConnect=0;fontColor=#232F3E;fillColor=#8C4FFF;strokeColor=#ffffff;dashed=0;verticalLabelPosition=bottom;verticalAlign=top;align=center;html=1;fontSize=12;fontStyle=0;aspect=fixed;shape=mxgraph.aws4.resourceIcon;resIcon=mxgraph.aws4.cloudfront;" vertex="1" parent="1">
          <mxGeometry x="682.5" y="259" width="24" height="24" as="geometry" />
        </mxCell>
        <mxCell id="sQwk3OUNblVCWxSX63vB-29" value="" style="edgeStyle=orthogonalEdgeStyle;rounded=0;orthogonalLoop=1;jettySize=auto;html=1;exitX=0.514;exitY=1;exitDx=0;exitDy=0;exitPerimeter=0;" edge="1" parent="1" source="sQwk3OUNblVCWxSX63vB-28" target="sQwk3OUNblVCWxSX63vB-16">
          <mxGeometry relative="1" as="geometry">
            <Array as="points">
              <mxPoint x="580" y="290" />
            </Array>
          </mxGeometry>
        </mxCell>
        <mxCell id="sQwk3OUNblVCWxSX63vB-30" value="&lt;font style=&quot;font-size: 7px;&quot;&gt;Authentication&lt;/font&gt;&lt;div&gt;&lt;font style=&quot;font-size: 7px;&quot;&gt;Rate limiting&lt;/font&gt;&lt;/div&gt;&lt;div&gt;&lt;font style=&quot;font-size: 7px;&quot;&gt;Reverse proxy&lt;/font&gt;&lt;/div&gt;" style="rounded=0;whiteSpace=wrap;html=1;align=left;fillColor=none;strokeWidth=0;strokeColor=#FFFFFF;" vertex="1" parent="1">
          <mxGeometry x="628.5" y="324" width="121.5" height="76" as="geometry" />
        </mxCell>
        <mxCell id="sQwk3OUNblVCWxSX63vB-49" value="" style="edgeStyle=orthogonalEdgeStyle;rounded=0;orthogonalLoop=1;jettySize=auto;html=1;entryX=1;entryY=0.51;entryDx=0;entryDy=0;entryPerimeter=0;exitX=1;exitY=0.51;exitDx=0;exitDy=0;exitPerimeter=0;" edge="1" parent="1" source="sQwk3OUNblVCWxSX63vB-45">
          <mxGeometry relative="1" as="geometry">
            <mxPoint x="682" y="615.0114942528736" as="sourcePoint" />
            <mxPoint x="696.5000000000001" y="576" as="targetPoint" />
            <Array as="points">
              <mxPoint x="697" y="615" />
            </Array>
          </mxGeometry>
        </mxCell>
        <mxCell id="sQwk3OUNblVCWxSX63vB-33" value="" style="rounded=1;whiteSpace=wrap;html=1;fillColor=none;dashed=1;" vertex="1" parent="1">
          <mxGeometry x="390" y="476" width="380" height="100" as="geometry" />
        </mxCell>
        <mxCell id="sQwk3OUNblVCWxSX63vB-31" value="" style="aspect=fixed;sketch=0;html=1;dashed=0;whitespace=wrap;verticalLabelPosition=bottom;verticalAlign=top;fillColor=#2875E2;strokeColor=#ffffff;points=[[0.005,0.63,0],[0.1,0.2,0],[0.9,0.2,0],[0.5,0,0],[0.995,0.63,0],[0.72,0.99,0],[0.5,1,0],[0.28,0.99,0]];shape=mxgraph.kubernetes.icon2;prIcon=api" vertex="1" parent="1">
          <mxGeometry x="556.13" y="446.8" width="58.75" height="56.4" as="geometry" />
        </mxCell>
        <mxCell id="sQwk3OUNblVCWxSX63vB-34" value="Previsit Service" style="shape=image;html=1;verticalAlign=top;verticalLabelPosition=bottom;labelBackgroundColor=#ffffff;imageAspect=0;aspect=fixed;image=https://cdn1.iconfinder.com/data/icons/unicons-line-vol-3/24/docker-128.png;fontSize=8;spacing=-4;" vertex="1" parent="1">
          <mxGeometry x="442" y="512" width="45" height="45" as="geometry" />
        </mxCell>
        <mxCell id="sQwk3OUNblVCWxSX63vB-37" value="Previsit Service" style="shape=image;html=1;verticalAlign=top;verticalLabelPosition=bottom;labelBackgroundColor=#ffffff;imageAspect=0;aspect=fixed;image=https://cdn1.iconfinder.com/data/icons/unicons-line-vol-3/24/docker-128.png;fontSize=8;spacing=-4;" vertex="1" parent="1">
          <mxGeometry x="508" y="512" width="45" height="45" as="geometry" />
        </mxCell>
        <mxCell id="sQwk3OUNblVCWxSX63vB-38" value="Previsit Service" style="shape=image;html=1;verticalAlign=top;verticalLabelPosition=bottom;labelBackgroundColor=#ffffff;imageAspect=0;aspect=fixed;image=https://cdn1.iconfinder.com/data/icons/unicons-line-vol-3/24/docker-128.png;fontSize=8;spacing=-4;" vertex="1" parent="1">
          <mxGeometry x="575" y="512" width="45" height="45" as="geometry" />
        </mxCell>
        <mxCell id="sQwk3OUNblVCWxSX63vB-39" value="Previsit Service" style="shape=image;html=1;verticalAlign=top;verticalLabelPosition=bottom;labelBackgroundColor=#ffffff;imageAspect=0;aspect=fixed;image=https://cdn1.iconfinder.com/data/icons/unicons-line-vol-3/24/docker-128.png;fontSize=8;spacing=-5;" vertex="1" parent="1">
          <mxGeometry x="641.5" y="512" width="45" height="45" as="geometry" />
        </mxCell>
        <mxCell id="sQwk3OUNblVCWxSX63vB-44" value="&lt;font style=&quot;font-size: 6px;&quot;&gt;Load balance&lt;/font&gt;" style="outlineConnect=0;dashed=0;verticalLabelPosition=bottom;verticalAlign=top;align=center;html=1;shape=mxgraph.aws3.classic_load_balancer;fillColor=#F58536;gradientColor=none;spacing=-9;" vertex="1" parent="1">
          <mxGeometry x="694" y="483" width="25" height="25" as="geometry" />
        </mxCell>
        <mxCell id="sQwk3OUNblVCWxSX63vB-45" value="&lt;font&gt;Publisher/subscriber&amp;nbsp;&lt;/font&gt;&lt;div&gt;&lt;font&gt;(inter-domain communication)&lt;/font&gt;&lt;/div&gt;" style="sketch=0;aspect=fixed;pointerEvents=1;shadow=0;dashed=0;html=1;strokeColor=none;labelPosition=center;verticalLabelPosition=bottom;verticalAlign=top;align=center;fillColor=#00188D;shape=mxgraph.azure.queue_generic;spacing=-4;fontSize=9;" vertex="1" parent="1">
          <mxGeometry x="535.5" y="600" width="100" height="30" as="geometry" />
        </mxCell>
        <mxCell id="sQwk3OUNblVCWxSX63vB-50" style="edgeStyle=orthogonalEdgeStyle;rounded=0;orthogonalLoop=1;jettySize=auto;html=1;exitX=0.25;exitY=1;exitDx=0;exitDy=0;entryX=0;entryY=0.5;entryDx=0;entryDy=0;entryPerimeter=0;" edge="1" parent="1" target="sQwk3OUNblVCWxSX63vB-45">
          <mxGeometry relative="1" as="geometry">
            <mxPoint x="472.05000000000007" y="576" as="sourcePoint" />
            <mxPoint x="535.5" y="615.9300000000001" as="targetPoint" />
            <Array as="points">
              <mxPoint x="472" y="615" />
            </Array>
          </mxGeometry>
        </mxCell>
        <mxCell id="sQwk3OUNblVCWxSX63vB-52" value="&lt;font style=&quot;font-size: 6px;&quot;&gt;Load balance&lt;/font&gt;" style="outlineConnect=0;dashed=0;verticalLabelPosition=bottom;verticalAlign=top;align=center;html=1;shape=mxgraph.aws3.classic_load_balancer;fillColor=#F58536;gradientColor=none;spacing=-9;" vertex="1" parent="1">
          <mxGeometry x="400" y="483" width="25" height="25" as="geometry" />
        </mxCell>
        <mxCell id="sQwk3OUNblVCWxSX63vB-54" value="" style="edgeStyle=orthogonalEdgeStyle;rounded=0;orthogonalLoop=1;jettySize=auto;html=1;exitX=0.806;exitY=-0.03;exitDx=0;exitDy=0;exitPerimeter=0;fontSize=9;" edge="1" parent="1" source="sQwk3OUNblVCWxSX63vB-33" target="sQwk3OUNblVCWxSX63vB-53">
          <mxGeometry relative="1" as="geometry">
            <Array as="points">
              <mxPoint x="696" y="420" />
            </Array>
          </mxGeometry>
        </mxCell>
        <mxCell id="sQwk3OUNblVCWxSX63vB-55" value="Writes" style="edgeLabel;html=1;align=center;verticalAlign=middle;resizable=0;points=[];fontSize=8;" vertex="1" connectable="0" parent="sQwk3OUNblVCWxSX63vB-54">
          <mxGeometry x="-0.1796" relative="1" as="geometry">
            <mxPoint x="31" as="offset" />
          </mxGeometry>
        </mxCell>
        <mxCell id="sQwk3OUNblVCWxSX63vB-53" value="Primary" style="sketch=0;points=[[0,0,0],[0.25,0,0],[0.5,0,0],[0.75,0,0],[1,0,0],[0,1,0],[0.25,1,0],[0.5,1,0],[0.75,1,0],[1,1,0],[0,0.25,0],[0,0.5,0],[0,0.75,0],[1,0.25,0],[1,0.5,0],[1,0.75,0]];outlineConnect=0;fontColor=#232F3E;fillColor=#C925D1;strokeColor=#ffffff;dashed=0;verticalLabelPosition=bottom;verticalAlign=top;align=center;html=1;fontSize=9;fontStyle=0;aspect=fixed;shape=mxgraph.aws4.resourceIcon;resIcon=mxgraph.aws4.documentdb_with_mongodb_compatibility;spacing=-4;" vertex="1" parent="1">
          <mxGeometry x="913" y="386.8" width="50" height="50" as="geometry" />
        </mxCell>
        <mxCell id="sQwk3OUNblVCWxSX63vB-60" value="" style="edgeStyle=orthogonalEdgeStyle;rounded=0;orthogonalLoop=1;jettySize=auto;html=1;" edge="1" parent="1" source="sQwk3OUNblVCWxSX63vB-56" target="sQwk3OUNblVCWxSX63vB-59">
          <mxGeometry relative="1" as="geometry" />
        </mxCell>
        <mxCell id="sQwk3OUNblVCWxSX63vB-84" value="reads" style="edgeLabel;html=1;align=center;verticalAlign=middle;resizable=0;points=[];fontSize=7;fontColor=none;noLabel=1;" vertex="1" connectable="0" parent="sQwk3OUNblVCWxSX63vB-60">
          <mxGeometry x="-0.0491" y="-1" relative="1" as="geometry">
            <mxPoint as="offset" />
          </mxGeometry>
        </mxCell>
        <mxCell id="sQwk3OUNblVCWxSX63vB-85" value="Reads" style="edgeLabel;html=1;align=center;verticalAlign=middle;resizable=0;points=[];fontSize=8;" vertex="1" connectable="0" parent="sQwk3OUNblVCWxSX63vB-60">
          <mxGeometry x="0.1474" y="-1" relative="1" as="geometry">
            <mxPoint as="offset" />
          </mxGeometry>
        </mxCell>
        <mxCell id="sQwk3OUNblVCWxSX63vB-56" value="Replica" style="sketch=0;points=[[0,0,0],[0.25,0,0],[0.5,0,0],[0.75,0,0],[1,0,0],[0,1,0],[0.25,1,0],[0.5,1,0],[0.75,1,0],[1,1,0],[0,0.25,0],[0,0.5,0],[0,0.75,0],[1,0.25,0],[1,0.5,0],[1,0.75,0]];outlineConnect=0;fontColor=#232F3E;fillColor=#C925D1;strokeColor=#ffffff;dashed=0;verticalLabelPosition=bottom;verticalAlign=top;align=center;html=1;fontSize=9;fontStyle=0;aspect=fixed;shape=mxgraph.aws4.resourceIcon;resIcon=mxgraph.aws4.documentdb_with_mongodb_compatibility;spacing=-5;" vertex="1" parent="1">
          <mxGeometry x="914" y="494" width="50" height="50" as="geometry" />
        </mxCell>
        <mxCell id="sQwk3OUNblVCWxSX63vB-59" value="Redis cache" style="outlineConnect=0;dashed=0;verticalLabelPosition=bottom;verticalAlign=top;align=center;html=1;shape=mxgraph.aws3.redis;fillColor=#2E73B8;gradientColor=none;fontSize=9;spacing=-2;" vertex="1" parent="1">
          <mxGeometry x="816" y="500" width="40" height="40" as="geometry" />
        </mxCell>
        <mxCell id="sQwk3OUNblVCWxSX63vB-64" style="edgeStyle=orthogonalEdgeStyle;rounded=0;orthogonalLoop=1;jettySize=auto;html=1;entryX=1.003;entryY=0.447;entryDx=0;entryDy=0;entryPerimeter=0;" edge="1" parent="1" source="sQwk3OUNblVCWxSX63vB-59" target="sQwk3OUNblVCWxSX63vB-33">
          <mxGeometry relative="1" as="geometry" />
        </mxCell>
        <mxCell id="sQwk3OUNblVCWxSX63vB-66" value="Mongodb cluster" style="text;html=1;align=center;verticalAlign=middle;resizable=0;points=[];autosize=1;strokeColor=none;fillColor=none;" vertex="1" parent="1">
          <mxGeometry x="880" y="348.31" width="110" height="30" as="geometry" />
        </mxCell>
        <mxCell id="sQwk3OUNblVCWxSX63vB-67" value="" style="rounded=1;whiteSpace=wrap;html=1;fillColor=none;dashed=1;aspect=fixed;" vertex="1" parent="1">
          <mxGeometry x="390" y="670" width="380" height="90" as="geometry" />
        </mxCell>
        <mxCell id="sQwk3OUNblVCWxSX63vB-68" value="logs" style="sketch=0;outlineConnect=0;fontColor=#232F3E;gradientColor=none;fillColor=#E7157B;strokeColor=none;dashed=0;verticalLabelPosition=bottom;verticalAlign=top;align=center;html=1;fontSize=12;fontStyle=0;aspect=fixed;pointerEvents=1;shape=mxgraph.aws4.cloudwatch_logs;" vertex="1" parent="1">
          <mxGeometry x="414" y="691.8000000000001" width="50" height="37.18" as="geometry" />
        </mxCell>
        <mxCell id="sQwk3OUNblVCWxSX63vB-69" value="&lt;font&gt;Auto scale&lt;/font&gt;" style="outlineConnect=0;dashed=0;verticalLabelPosition=bottom;verticalAlign=top;align=center;html=1;shape=mxgraph.aws3.auto_scaling;fillColor=#F58534;gradientColor=none;spacing=-5;fontSize=6;" vertex="1" parent="1">
          <mxGeometry x="439" y="483" width="25" height="25" as="geometry" />
        </mxCell>
        <mxCell id="sQwk3OUNblVCWxSX63vB-71" value="&lt;font&gt;Auto scale&lt;/font&gt;" style="outlineConnect=0;dashed=0;verticalLabelPosition=bottom;verticalAlign=top;align=center;html=1;shape=mxgraph.aws3.auto_scaling;fillColor=#F58534;gradientColor=none;spacing=-5;fontSize=6;" vertex="1" parent="1">
          <mxGeometry x="730" y="483" width="25" height="25" as="geometry" />
        </mxCell>
        <mxCell id="sQwk3OUNblVCWxSX63vB-73" value="Audit logs" style="shadow=0;dashed=0;html=1;strokeColor=none;fillColor=#4495D1;labelPosition=center;verticalLabelPosition=bottom;verticalAlign=top;align=center;outlineConnect=0;shape=mxgraph.veeam.checked_doc;fontSize=10;spacing=-9;aspect=fixed;" vertex="1" parent="1">
          <mxGeometry x="481.5" y="689.2" width="43" height="51.6" as="geometry" />
        </mxCell>
        <mxCell id="sQwk3OUNblVCWxSX63vB-74" value="Metrics" style="sketch=0;outlineConnect=0;fontColor=#232F3E;gradientColor=none;fillColor=#232F3D;strokeColor=none;dashed=0;verticalLabelPosition=bottom;verticalAlign=top;align=center;html=1;fontSize=10;fontStyle=0;pointerEvents=1;shape=mxgraph.aws4.metrics;aspect=fixed;spacing=-5;" vertex="1" parent="1">
          <mxGeometry x="550" y="689.2" width="53.82" height="49" as="geometry" />
        </mxCell>
        <mxCell id="sQwk3OUNblVCWxSX63vB-77" value="Cloud Trace" style="sketch=0;verticalAlign=top;labelPosition=center;verticalLabelPosition=bottom;align=center;spacingTop=-6;fontSize=10;fontStyle=0;fontColor=default;shape=image;aspect=fixed;imageAspect=0;image=data:image/svg+xml,PHN2ZyB4bWxucz0iaHR0cDovL3d3dy53My5vcmcvMjAwMC9zdmciIHhtbG5zOnY9Imh0dHBzOi8vdmVjdGEuaW8vbmFubyIgd2lkdGg9IjIwIiBoZWlnaHQ9IjIwIiB2aWV3Qm94PSIwIDAgMjAgMjAiPiYjeGE7CTxzdHlsZSB0eXBlPSJ0ZXh0L2NzcyI+JiN4YTsJLnN0MHtmaWxsOiM0Mjg1ZjQ7fSYjeGE7CS5zdDF7ZmlsbDojNjY5ZGY2O30mI3hhOwk8L3N0eWxlPiYjeGE7CTxwYXRoIGNsYXNzPSJzdDAiIGQ9Ik0yMCA4SDEwdjRoMTB6bTAgOEgxMHY0aDEweiIgZmlsbD0iIzQyODVmNCIvPiYjeGE7CTxwYXRoIGNsYXNzPSJzdDEiIGQ9Ik0xMCAxNkg2djRoNHpNMCAwaDZ2NEgwem0wIDhoMTB2NEgweiIgZmlsbD0iIzY2OWRmNiIvPiYjeGE7PC9zdmc+;textShadow=0;" vertex="1" parent="1">
          <mxGeometry x="631.5" y="707.3000000000001" width="30" height="30" as="geometry" />
        </mxCell>
        <mxCell id="sQwk3OUNblVCWxSX63vB-78" value="Alarms" style="sketch=0;outlineConnect=0;fontColor=#232F3E;gradientColor=none;fillColor=#E7157B;strokeColor=none;dashed=0;verticalLabelPosition=bottom;verticalAlign=top;align=center;html=1;fontSize=11;fontStyle=0;aspect=fixed;pointerEvents=1;shape=mxgraph.aws4.alarm;spacing=-6;" vertex="1" parent="1">
          <mxGeometry x="693" y="701.2" width="37" height="37" as="geometry" />
        </mxCell>
        <mxCell id="sQwk3OUNblVCWxSX63vB-79" value="Observability" style="rounded=1;whiteSpace=wrap;html=1;" vertex="1" parent="1">
          <mxGeometry x="391.5" y="770" width="378.5" height="30" as="geometry" />
        </mxCell>
        <mxCell id="sQwk3OUNblVCWxSX63vB-80" value="" style="sketch=0;outlineConnect=0;fontColor=#232F3E;gradientColor=none;fillColor=#8C4FFF;strokeColor=none;dashed=0;verticalLabelPosition=bottom;verticalAlign=top;align=center;html=1;fontSize=12;fontStyle=0;aspect=fixed;pointerEvents=1;shape=mxgraph.aws4.edge_location;" vertex="1" parent="1">
          <mxGeometry x="535.5" y="217.5" width="25" height="25" as="geometry" />
        </mxCell>
        <mxCell id="sQwk3OUNblVCWxSX63vB-82" value="" style="sketch=0;outlineConnect=0;fontColor=#232F3E;gradientColor=none;fillColor=#8C4FFF;strokeColor=none;dashed=0;verticalLabelPosition=bottom;verticalAlign=top;align=center;html=1;fontSize=12;fontStyle=0;aspect=fixed;pointerEvents=1;shape=mxgraph.aws4.edge_location;" vertex="1" parent="1">
          <mxGeometry x="600" y="217.5" width="25" height="25" as="geometry" />
        </mxCell>
        <mxCell id="sQwk3OUNblVCWxSX63vB-83" value="&lt;font style=&quot;font-size: 9px;&quot;&gt;Edge location&lt;/font&gt;&lt;div&gt;&lt;font style=&quot;font-size: 9px;&quot;&gt;CDNs&lt;/font&gt;&lt;/div&gt;" style="rounded=0;whiteSpace=wrap;html=1;fillColor=none;opacity=0;fontStyle=1" vertex="1" parent="1">
          <mxGeometry x="540.38" y="250" width="74.5" height="30" as="geometry" />
        </mxCell>
      </root>
    </mxGraphModel>
  </diagram>
</mxfile>
